# xmcd CD Database Entry
#
# Track frame offsets:
# 150
# 23799
# 44926
# 80577
# 118228
# 150392
# 163605
# 192870
# 213268
#
# Disc length: 3152 seconds
#
# Revision: 1
# Processed by: cddbd v1.4b42PL1 Copyright (c) Steve Scherf et al.
# Submitted via: tcd 2.0b
#
DISCID=760c4e09
DTITLE=Ellen McIlwaine - Women in (E)Motion
DYEAR=1900
DGENRE=
TTITLE0=Save the World
TTITLE1=Howl at the Moon
TTITLE2=Beg for the Reason
TTITLE3=Fight the Power
TTITLE4=May this be Love
TTITLE5=Crawling Kingsnake
TTITLE6=I'm a Woman
TTITLE7=Bid you Goodnight
TTITLE8=Lean on me
EXTD=
EXTT0=
EXTT1=
EXTT2=
EXTT3=
EXTT4=
EXTT5=
EXTT6=
EXTT7=
EXTT8=
PLAYORDER=
